# xmcd
#
# Track frame offsets: 
#        150
#        13897
#        29835
#        56445
#        74408
#        97861
#        118796
#        138915
#        157555
#        180836
#        205893
#        224698
#        243341
#        264418
#        290553
#        305403
#        325035
#
# Disc length: 4787 seconds
#
# Revision: 0
# Processed by: cddbd v1.5.2PL0 Copyright (c) Steve Scherf et al.
# Submitted via: ExactAudioCopy v1.3
#
DISCID=f012b111
DTITLE=Various Artist - Akella Presents - vol. 144 - Rockin' Blues  C
DTITLE=D1
DYEAR=2018
DGENRE=Blues
TTITLE0=Peter McGraw - Wait A Minute
TTITLE1=Jason Buie - Suits Me To A Tee
TTITLE2=Bluesville Station - Moanin' Woman Blues
TTITLE3=Dr.Feelgood - On The Road Again
TTITLE4=John Verity - You Shook Me
TTITLE5=Ori Naftaly - Help Me
TTITLE6=Pete Special - Breaking Up Somebody's Home
TTITLE7=Samuel Eddy - Get Lost
TTITLE8=Thermal Blues Express - Only Blues
TTITLE9=Dave Fields - Frenzy
TTITLE10=Stevie Ray Vaughan - Crossfire
TTITLE11=Joe Pitts - Pain In The Streets
TTITLE12=Topper Price and The Upsetters - Help Me Baby
TTITLE13=Main Street Blues - Down
TTITLE14=George Thorogood - Smokestack Lightning
TTITLE15=Jordan Patterson - Those Pretty Eyes
TTITLE16=Mike Dugan - Roller Coaster Love
EXTD=
EXTT0=
EXTT1=
EXTT2=
EXTT3=
EXTT4=
EXTT5=
EXTT6=
EXTT7=
EXTT8=
EXTT9=
EXTT10=
EXTT11=
EXTT12=
EXTT13=
EXTT14=
EXTT15=
EXTT16=
PLAYORDER=
